# xmcd
#
# Track frame offsets: 
#        182
#        6312
#        23117
#        39687
#        60985
#        82090
#        104502
#        117992
#        132535
#        157855
#        171577
#        172580
#        185565
#        203077
#
# Disc length: 2905 seconds
#
# Revision: 1
# Processed by: cddbd v1.5.2PL0 Copyright (c) Steve Scherf et al.
# Submitted via: ExactAudioCopy v1.3
#
DISCID=b90b570e
DTITLE=Martyna Jakubiwicz - Maquillage
DYEAR=1991
DGENRE=R&B
TTITLE0=Instrumental Cezara
TTITLE1=Kiedy bede stara kobieta
TTITLE2=Stlucz szybe i wyrzuc klucz
TTITLE3=W domach z betonu nie ma wolnej milosci
TTITLE4=Albo cacy, albo lili
TTITLE5=Wladco swiata, wladco ciemnosci
TTITLE6=Ktora to faza
TTITLE7=Kretyni i osly
TTITLE8=Blues o zuzytych butach i szczesliwym koncu szerokiej drogi
TTITLE9=Rosa taka sama od lat
TTITLE10=Gong
TTITLE11=Posluchaj Marta
TTITLE12=Klopoty to jej specjalnosc
TTITLE13=Tyle zalet mial
EXTD=
EXTT0=
EXTT1=
EXTT2=
EXTT3=
EXTT4=
EXTT5=
EXTT6=
EXTT7=
EXTT8=
EXTT9=
EXTT10=
EXTT11=
EXTT12=
EXTT13=
PLAYORDER=
